<?xml version="1.0" encoding="UTF-8"?>
<svg width="1040px" height="788px" viewBox="0 0 1040 788" version="1.1" xmlns="http://www.w3.org/2000/svg" xmlns:xlink="http://www.w3.org/1999/xlink">
    <!-- Generator: Sketch 52.4 (67378) - http://www.bohemiancoding.com/sketch -->
    <title>flowers</title>
    <desc>Created with Sketch.</desc>
    <g id="flowers" stroke="none" stroke-width="1" fill="none" fill-rule="evenodd">
        <path d="M145.986034,140.601061 C143.742204,125.347228 125.851188,65.6376387 136.361242,34.3561728 C140.738949,21.326641 150.04406,13.2292064 167.4597,15.3307875 C226.687031,22.4778715 176.018874,107.926109 145.986034,140.601061 C143.006254,143.842984 292.951196,44.0339925 305.642488,110.516313 C313.006283,149.090963 204.828157,186.107023 145.986034,140.601061 C105.005851,108.908754 59.8970942,24.7413215 35.3179664,70.9789598 C10.7388386,117.216598 102.573028,125.9119 144.802815,140.601061 C151.889242,143.065996 31.3973334,221.728513 17.0268857,184.688111 C2.656438,147.647709 143.848159,136.92313 144.802815,140.601061 C156.475458,185.571403 154.878724,276.187894 197.434579,256.149659 C225.805149,242.790837 208.655634,204.274637 145.986034,140.601061 Z" id="Path-10" stroke="#EED974" stroke-width="3"></path>
        <path d="M667.785928,511.256255 C666.633063,503.816886 657.440783,474.696225 662.840776,459.440101 C665.090012,453.085534 669.870913,449.136375 678.818949,450.161327 C709.249544,453.646995 683.216594,495.32052 667.785928,511.256255 C666.254937,512.837357 743.295615,464.160021 749.816313,496.583776 C753.59978,515.396822 698.018605,533.449737 667.785928,511.256255 C646.730593,495.799761 623.554024,454.75089 610.925438,477.301214 C598.296852,499.851538 645.480625,504.092279 667.177998,511.256255 C670.818955,512.458416 608.911044,550.822513 601.527607,532.757726 C594.14417,514.69294 666.687503,509.46251 667.177998,511.256255 C673.175321,533.188512 672.354931,577.38262 694.219836,567.609875 C708.796439,561.094711 699.985136,542.310171 667.785928,511.256255 Z" id="Path-10" stroke="#EED974" stroke-width="3"></path>
        <path d="M242.029859,628.121642 C241.287074,623.370448 235.364531,604.772379 238.843722,595.028972 C240.292893,590.970593 243.373206,588.448441 249.138383,589.103032 C268.744672,591.329173 251.971765,617.944198 242.029859,628.121642 C241.04345,629.131421 290.680396,598.043375 294.881651,618.750983 C297.319321,630.766038 261.508631,642.29563 242.029859,628.121642 C228.464006,618.250268 213.531452,592.034182 205.394913,606.436069 C197.258374,620.837957 227.658658,623.54633 241.638173,628.121642 C243.984025,628.889408 204.097048,653.390848 199.339935,641.853674 C194.582821,630.3165 241.322149,626.976057 241.638173,628.121642 C245.502221,642.128798 244.973647,670.353606 259.061102,664.112189 C268.452739,659.951244 262.775658,647.954395 242.029859,628.121642 Z" id="Path-10" stroke="#EED974" stroke-width="3"></path>
        <path d="M920.029859,709.121642 C919.287074,704.370448 913.364531,685.772379 916.843722,676.028972 C918.292893,671.970593 921.373206,669.448441 927.138383,670.103032 C946.744672,672.329173 929.971765,698.944198 920.029859,709.121642 C919.04345,710.131421 968.680396,679.043375 972.881651,699.750983 C975.319321,711.766038 939.508631,723.29563 920.029859,709.121642 C906.464006,699.250268 891.531452,673.034182 883.394913,687.436069 C875.258374,701.837957 905.658658,704.54633 919.638173,709.121642 C921.984025,709.889408 882.097048,734.390848 877.339935,722.853674 C872.582821,711.3165 919.322149,707.976057 919.638173,709.121642 C923.502221,723.128798 922.973647,751.353606 937.061102,745.112189 C946.452739,740.951244 940.775658,728.954395 920.029859,709.121642 Z" id="Path-10" stroke="#EED974" stroke-width="3"></path>
        <path d="M97.2657093,711.316997 C90.9509189,704.526696 61.4859504,680.86831 56.4111494,662.095814 C54.2973648,654.276589 56.4151178,647.305034 66.1998888,642.753191 C99.4760626,627.273225 101.894818,685.595974 97.2657093,711.316997 C96.8064213,713.86897 141.27985,616.630148 170.319665,645.290971 C187.169267,661.920674 143.280442,714.846201 97.2657093,711.316997 C65.2190729,708.859107 13.3198729,681.889973 16.1078685,712.539023 C18.8958642,743.188072 69.6867888,718.010828 96.6490951,711.696546 C101.173542,710.63697 64.9158782,788.016686 44.9324149,774.389927 C24.9489517,760.763169 94.910945,710.191986 96.6490951,711.696546 C117.90159,730.092924 147.636439,775.21923 163.054347,751.702673 C173.332952,736.024968 151.403406,722.563076 97.2657093,711.316997 Z" id="Path-10" stroke="#EED974" stroke-width="3"></path>
        <path d="M138.305047,330.298743 C137.453939,324.797361 130.667692,303.262755 134.654264,291.980915 C136.314774,287.281739 139.844298,284.361353 146.450231,285.1193 C168.915771,287.696937 149.696814,318.514334 138.305047,330.298743 C137.174786,331.467961 194.050454,295.471276 198.864392,319.448507 C201.657556,333.360675 160.624473,346.71073 138.305047,330.298743 C122.76084,318.868731 105.650622,288.513263 96.3275045,305.189133 C87.004387,321.865003 121.838045,325.001013 137.85624,330.298743 C140.544195,331.187736 94.8403678,359.557824 89.3895084,346.198991 C83.9386489,332.840157 137.494129,328.972276 137.85624,330.298743 C142.283794,346.517555 141.678137,379.198912 157.820013,371.972008 C168.581264,367.154072 162.076275,353.262984 138.305047,330.298743 Z" id="Path-10" stroke="#EED974" stroke-width="3"></path>
        <path d="M62.6076057,391.439151 C68.4479731,391.403606 91.7895442,388.0105 102.970069,393.336563 C107.627044,395.555005 110.174155,399.286167 108.467875,405.402767 C102.665135,426.204181 73.2818782,403.810181 62.6076057,391.439151 C61.5485324,390.21173 91.0863079,448.795984 65.4781734,449.991208 C50.6197147,450.684705 42.435774,410.176384 62.6076057,391.439151 C76.6561358,378.389737 110.60703,366.500829 94.5575995,355.397089 C78.508169,344.293348 70.4060479,376.666579 62.6699695,391.016418 C61.3718062,393.424412 38.2142363,346.425026 52.8664581,343.151178 C67.5186799,339.87733 64.0999722,390.860067 62.6699695,391.016418 C45.1852171,392.928134 11.2768163,387.806493 16.5506844,404.016995 C20.0665966,414.823996 35.4189036,410.631381 62.6076057,391.439151 Z" id="Path-10" stroke="#EED974" stroke-width="3"></path>
        <path d="M913.16466,150.007149 C911.918948,141.505012 901.986349,108.224258 907.821241,90.7886865 C910.251623,83.5263245 915.417564,79.0130003 925.086247,80.1843734 C957.967628,84.167994 929.838064,131.79488 913.16466,150.007149 C911.510369,151.814122 994.755664,96.182881 1001.80152,133.238601 C1005.88969,154.739225 945.832184,175.371127 913.16466,150.007149 C890.413593,132.342584 865.370456,85.429589 851.724802,111.201387 C838.079148,136.973186 889.062957,141.819748 912.50777,150.007149 C916.441959,151.381047 849.548175,195.225729 841.570099,174.580259 C833.592022,153.934789 911.977771,147.957154 912.50777,150.007149 C918.988099,175.072586 918.101637,225.580137 941.727473,214.411286 C957.478031,206.965384 947.957093,185.497339 913.16466,150.007149 Z" id="Path-10" stroke="#EED974" stroke-width="3"></path>
        <path d="M796.557844,290.764622 C795.675076,284.792219 788.636388,261.413851 792.771257,249.166076 C794.493535,244.064564 798.154354,240.894139 805.006019,241.716981 C828.307249,244.515311 808.373371,277.971249 796.557844,290.764622 C795.385539,292.033947 854.376912,252.955277 859.369924,278.985404 C862.266989,294.088712 819.707526,308.581779 796.557844,290.764622 C780.435411,278.355989 762.688714,245.40153 753.018788,263.505163 C743.348861,281.608797 779.47829,285.013308 796.092342,290.764622 C798.880286,291.729729 751.476331,322.528824 745.822706,308.026226 C740.169081,293.523629 795.716761,289.324585 796.092342,290.764622 C800.684596,308.372066 800.056409,343.851553 816.798743,336.005892 C827.960299,330.775451 821.213333,315.695028 796.557844,290.764622 Z" id="Path-10" stroke="#EED974" stroke-width="3" transform="translate(802.464642, 289.354682) rotate(-42.000000) translate(-802.464642, -289.354682) "></path>
        <path d="M951.608571,262.784861 C951.058508,259.063024 946.672626,244.494267 949.249107,236.86179 C950.322277,233.682668 952.603373,231.706946 956.872719,232.219718 C971.391966,233.963561 958.970952,254.812382 951.608571,262.784861 C950.878094,263.575869 987.636253,239.223116 990.747451,255.444376 C992.552644,264.856342 966.033386,273.888023 951.608571,262.784861 C941.56251,255.052141 930.504352,234.515828 924.478917,245.797515 C918.453482,257.079202 940.966117,259.2008 951.318511,262.784861 C953.055709,263.386289 923.517796,282.579438 919.994961,273.541818 C916.472127,264.504198 951.084483,261.887469 951.318511,262.784861 C954.179994,273.757336 953.788564,295.867177 964.220892,290.977977 C971.175777,287.71851 966.97167,278.320805 951.608571,262.784861 Z" id="Path-10" stroke="#EED974" stroke-width="3" transform="translate(955.289160, 261.906225) rotate(-42.000000) translate(-955.289160, -261.906225) "></path>
    </g>
</svg>